<?xml version="1.0" standalone="no"?>
<!DOCTYPE svg PUBLIC "-//W3C//DTD SVG 20010904//EN"
 "http://www.w3.org/TR/2001/REC-SVG-20010904/DTD/svg10.dtd">
<svg version="1.0" xmlns="http://www.w3.org/2000/svg"
 width="810.000000pt" height="810.000000pt" viewBox="0 0 810.000000 810.000000"
 preserveAspectRatio="xMidYMid meet">

<g transform="translate(0.000000,810.000000) scale(0.100000,-0.100000)"
fill="#000000" stroke="none">
<path d="M3863 6973 c64 -2 170 -2 235 0 64 1 11 3 -118 3 -129 0 -182 -2
-117 -3z"/>
<path d="M3497 6953 c18 -2 50 -2 70 0 21 2 7 4 -32 4 -38 0 -55 -2 -38 -4z"/>
<path d="M4387 6953 c18 -2 50 -2 70 0 21 2 7 4 -32 4 -38 0 -55 -2 -38 -4z"/>
<path d="M3323 6933 c15 -2 37 -2 50 0 12 2 0 4 -28 4 -27 0 -38 -2 -22 -4z"/>
<path d="M4593 6933 c15 -2 37 -2 50 0 12 2 0 4 -28 4 -27 0 -38 -2 -22 -4z"/>
<path d="M3173 6913 c9 -2 25 -2 35 0 9 3 1 5 -18 5 -19 0 -27 -2 -17 -5z"/>
<path d="M4748 6913 c12 -2 30 -2 40 0 9 3 -1 5 -23 4 -22 0 -30 -2 -17 -4z"/>
<path d="M3053 6893 c9 -2 25 -2 35 0 9 3 1 5 -18 5 -19 0 -27 -2 -17 -5z"/>
<path d="M4873 6893 c9 -2 25 -2 35 0 9 3 1 5 -18 5 -19 0 -27 -2 -17 -5z"/>
<path d="M2953 6873 c9 -2 23 -2 30 0 6 3 -1 5 -18 5 -16 0 -22 -2 -12 -5z"/>
<path d="M4983 6873 c9 -2 23 -2 30 0 6 3 -1 5 -18 5 -16 0 -22 -2 -12 -5z"/>
<path d="M2863 6853 c9 -2 23 -2 30 0 6 3 -1 5 -18 5 -16 0 -22 -2 -12 -5z"/>
<path d="M5073 6853 c9 -2 23 -2 30 0 6 3 -1 5 -18 5 -16 0 -22 -2 -12 -5z"/>
<path d="M2773 6833 c9 -2 23 -2 30 0 6 3 -1 5 -18 5 -16 0 -22 -2 -12 -5z"/>
<path d="M5158 6833 c6 -2 18 -2 25 0 6 3 1 5 -13 5 -14 0 -19 -2 -12 -5z"/>
<path d="M2698 6813 c6 -2 18 -2 25 0 6 3 1 5 -13 5 -14 0 -19 -2 -12 -5z"/>
<path d="M5238 6813 c6 -2 18 -2 25 0 6 3 1 5 -13 5 -14 0 -19 -2 -12 -5z"/>
<path d="M2628 6793 c7 -3 16 -2 19 1 4 3 -2 6 -13 5 -11 0 -14 -3 -6 -6z"/>
<path d="M5318 6793 c7 -3 16 -2 19 1 4 3 -2 6 -13 5 -11 0 -14 -3 -6 -6z"/>
<path d="M2558 6773 c7 -3 16 -2 19 1 4 3 -2 6 -13 5 -11 0 -14 -3 -6 -6z"/>
<path d="M5388 6773 c7 -3 16 -2 19 1 4 3 -2 6 -13 5 -11 0 -14 -3 -6 -6z"/>
<path d="M2488 6753 c7 -3 16 -2 19 1 4 3 -2 6 -13 5 -11 0 -14 -3 -6 -6z"/>
<path d="M2425 6730 c4 -6 11 -8 16 -5 14 9 11 15 -7 15 -8 0 -12 -5 -9 -10z"/>
<path d="M3615 6688 c-149 -12 -373 -39 -475 -58 -318 -59 -548 -130 -728
-226 -114 -60 -169 -100 -209 -152 l-26 -34 82 3 c58 3 81 1 81 -8 0 -6 -4
-14 -9 -17 -16 -10 -51 -95 -51 -123 0 -35 12 -21 34 40 32 87 184 199 361
266 33 12 68 27 77 32 10 5 27 9 37 9 11 0 22 4 25 9 3 5 18 11 33 14 16 3 57
12 93 21 115 30 133 33 315 66 51 9 191 26 280 34 27 2 58 0 67 -5 13 -7 25
-1 50 27 18 19 61 51 95 71 35 19 63 37 63 39 0 5 -57 3 -195 -8z"/>
<path d="M4150 6692 c0 -4 24 -18 53 -32 28 -14 71 -44 94 -68 34 -34 46 -41
60 -34 29 15 332 -19 508 -57 28 -6 64 -14 80 -17 64 -12 295 -85 355 -111 54
-24 131 -62 167 -82 87 -49 170 -140 188 -206 l9 -30 4 28 c2 17 -7 48 -22 77
-14 27 -26 53 -26 57 0 5 34 7 75 5 41 -2 75 0 75 5 0 16 -84 95 -140 131
-153 99 -374 178 -705 252 -136 30 -382 62 -610 80 -165 12 -165 12 -165 2z"/>
<path d="M3898 6250 c-67 -25 -100 -52 -154 -123 -64 -84 -145 -263 -143 -315
0 -15 1 -15 12 1 7 10 23 33 36 50 22 30 23 30 18 7 -3 -14 -13 -50 -22 -80
-35 -117 -49 -173 -62 -249 -7 -45 5 -51 111 -51 112 0 108 9 -5 12 l-84 3 1
40 c2 43 11 88 24 120 4 11 14 40 21 65 17 60 72 181 103 227 41 60 106 123
149 143 43 21 122 27 132 10 3 -5 13 -10 20 -10 13 0 30 -11 69 -45 39 -34 45
-33 12 3 -61 64 -116 86 -201 79 -38 -4 -65 -3 -59 1 6 4 30 30 54 57 24 28
50 53 59 57 14 6 14 7 -1 7 -9 1 -22 3 -30 5 -7 2 -34 -4 -60 -14z"/>
<path d="M1690 6031 c-220 -199 -354 -365 -432 -536 -40 -88 -40 -88 46 -83
l73 3 -14 -45 c-8 -25 -18 -54 -23 -65 -4 -11 -12 -38 -18 -60 -6 -22 -15 -59
-21 -81 -14 -52 -14 -94 -1 -94 6 0 10 20 10 44 0 25 5 48 10 51 6 3 10 19 10
35 0 16 5 32 10 35 6 3 10 13 10 22 0 35 106 230 176 324 41 55 113 138 160
185 74 75 87 84 101 72 15 -12 16 -10 9 12 -14 43 -26 173 -21 208 8 47 -10
41 -85 -27z"/>
<path d="M6177 5983 c-2 -60 -7 -118 -12 -130 -6 -18 -4 -21 12 -17 13 4 38
-14 85 -61 165 -162 271 -322 341 -510 44 -119 39 -103 45 -172 2 -27 18 -31
20 -5 1 18 -15 100 -28 142 -4 14 -14 45 -21 70 -7 25 -16 50 -19 55 -4 6 -10
21 -13 35 l-6 25 74 -5 c78 -5 86 -1 66 38 -5 9 -23 46 -40 82 -54 114 -133
221 -259 351 -107 111 -217 209 -235 209 -3 0 -7 -48 -10 -107z"/>
<path d="M4662 6000 c0 -14 2 -19 5 -12 2 6 2 18 0 25 -3 6 -5 1 -5 -13z"/>
<path d="M5657 5996 c-4 -15 -6 -31 -2 -34 10 -10 16 6 13 35 l-3 28 -8 -29z"/>
<path d="M2290 5986 c0 -22 3 -27 11 -19 8 8 8 16 0 30 -9 16 -10 14 -11 -11z"/>
<path d="M2310 5942 c0 -6 8 -22 18 -34 25 -32 95 -98 100 -93 2 2 -12 19 -32
37 -20 19 -47 49 -61 68 -14 19 -25 29 -25 22z"/>
<path d="M5630 5935 c0 -9 -25 -40 -55 -71 -31 -30 -47 -50 -36 -45 22 12 111
109 111 122 0 5 -4 9 -10 9 -5 0 -10 -7 -10 -15z"/>
<path d="M4702 5870 c0 -14 2 -19 5 -12 2 6 2 18 0 25 -3 6 -5 1 -5 -13z"/>
<path d="M3240 5870 c0 -5 5 -10 10 -10 6 0 10 5 10 10 0 6 -4 10 -10 10 -5 0
-10 -4 -10 -10z"/>
<path d="M3232 5800 c0 -14 2 -19 5 -12 2 6 2 18 0 25 -3 6 -5 1 -5 -13z"/>
<path d="M4281 5804 c0 -11 3 -14 6 -6 3 7 2 16 -1 19 -3 4 -6 -2 -5 -13z"/>
<path d="M4720 5796 c0 -22 3 -27 11 -19 8 8 8 16 0 30 -9 16 -10 14 -11 -11z"/>
<path d="M2460 5790 c14 -10 27 -17 29 -14 6 5 -31 33 -44 33 -5 1 1 -8 15
-19z"/>
<path d="M5486 5794 c-11 -8 -16 -14 -10 -14 13 0 39 18 34 24 -3 2 -14 -2
-24 -10z"/>
<path d="M1811 5784 c0 -11 3 -14 6 -6 3 7 2 16 -1 19 -3 4 -6 -2 -5 -13z"/>
<path d="M6141 5784 c0 -11 3 -14 6 -6 3 7 2 16 -1 19 -3 4 -6 -2 -5 -13z"/>
<path d="M2510 5760 c0 -5 5 -10 11 -10 5 0 7 5 4 10 -3 6 -8 10 -11 10 -2 0
-4 -4 -4 -10z"/>
<path d="M4301 5754 c0 -11 3 -14 6 -6 3 7 2 16 -1 19 -3 4 -6 -2 -5 -13z"/>
<path d="M5430 5760 c0 -5 5 -10 10 -10 6 0 10 5 10 10 0 6 -4 10 -10 10 -5 0
-10 -4 -10 -10z"/>
<path d="M5390 5739 c0 -5 5 -7 10 -4 6 3 10 8 10 11 0 2 -4 4 -10 4 -5 0 -10
-5 -10 -11z"/>
<path d="M3208 5734 c-5 -4 -8 -19 -8 -33 0 -18 3 -22 11 -14 6 6 9 21 7 33
-1 12 -6 18 -10 14z"/>
<path d="M4742 5705 c0 -16 2 -22 5 -12 2 9 2 23 0 30 -3 6 -5 -1 -5 -18z"/>
<path d="M5348 5713 c7 -3 16 -2 19 1 4 3 -2 6 -13 5 -11 0 -14 -3 -6 -6z"/>
<path d="M6086 5695 c-9 -14 -13 -25 -9 -25 10 0 36 40 30 46 -2 3 -12 -7 -21
-21z"/>
<path d="M2635 5700 c3 -5 11 -10 16 -10 6 0 7 5 4 10 -3 6 -11 10 -16 10 -6
0 -7 -4 -4 -10z"/>
<path d="M4322 5690 c0 -14 2 -19 5 -12 2 6 2 18 0 25 -3 6 -5 1 -5 -13z"/>
<path d="M5310 5699 c0 -5 5 -7 10 -4 6 3 10 8 10 11 0 2 -4 4 -10 4 -5 0 -10
-5 -10 -11z"/>
<path d="M2735 5660 c3 -5 10 -10 16 -10 5 0 9 5 9 10 0 6 -7 10 -16 10 -8 0
-12 -4 -9 -10z"/>
<path d="M5200 5659 c0 -5 5 -7 10 -4 6 3 10 8 10 11 0 2 -4 4 -10 4 -5 0 -10
-5 -10 -11z"/>
<path d="M1890 5650 c0 -21 155 -163 239 -219 119 -81 291 -168 411 -211 19
-6 44 -16 55 -21 67 -29 341 -103 493 -134 l32 -7 0 -158 c0 -95 4 -161 10
-165 7 -4 10 59 10 182 0 150 3 193 15 210 13 18 13 22 0 33 -11 9 -22 10 -42
2 -38 -14 -208 -24 -235 -13 -13 5 -48 14 -78 21 -30 7 -77 19 -105 27 -27 8
-68 19 -90 25 -22 6 -44 15 -49 20 -6 4 -16 8 -23 8 -16 0 -73 25 -213 92
-135 66 -264 153 -356 244 -41 40 -74 68 -74 64z"/>
<path d="M6034 5628 c-44 -50 -133 -128 -199 -174 -57 -41 -252 -143 -332
-175 -13 -5 -33 -13 -45 -18 -62 -26 -146 -51 -343 -104 -51 -13 -243 -10
-272 5 -17 8 -26 8 -37 -1 -14 -12 -14 -16 -1 -42 11 -21 16 -72 17 -206 2
-173 2 -174 5 -38 2 77 5 150 8 162 4 18 18 24 83 38 172 37 435 114 532 157
25 11 54 24 65 28 188 74 421 230 511 340 16 19 33 38 39 42 5 4 7 10 4 13 -4
3 -19 -9 -35 -27z"/>
<path d="M3186 5614 c-7 -35 -13 -43 -40 -52 l-31 -10 31 -1 c41 -1 56 18 52
66 l-4 38 -8 -41z"/>
<path d="M2808 5633 c7 -3 16 -2 19 1 4 3 -2 6 -13 5 -11 0 -14 -3 -6 -6z"/>
<path d="M4760 5612 c0 -51 9 -62 49 -61 l36 0 -34 12 c-27 9 -35 18 -37 41
-4 40 -14 46 -14 8z"/>
<path d="M5138 5633 c7 -3 16 -2 19 1 4 3 -2 6 -13 5 -11 0 -14 -3 -6 -6z"/>
<path d="M2870 5620 c0 -5 7 -10 16 -10 8 0 12 5 9 10 -3 6 -10 10 -16 10 -5
0 -9 -4 -9 -10z"/>
<path d="M4342 5610 c0 -14 2 -19 5 -12 2 6 2 18 0 25 -3 6 -5 1 -5 -13z"/>
<path d="M5065 5620 c-3 -5 -2 -10 4 -10 5 0 13 5 16 10 3 6 2 10 -4 10 -5 0
-13 -4 -16 -10z"/>
<path d="M2948 5593 c6 -2 18 -2 25 0 6 3 1 5 -13 5 -14 0 -19 -2 -12 -5z"/>
<path d="M4988 5593 c6 -2 18 -2 25 0 6 3 1 5 -13 5 -14 0 -19 -2 -12 -5z"/>
<path d="M3035 5580 c-3 -5 1 -10 10 -10 9 0 13 5 10 10 -3 6 -8 10 -10 10 -2
0 -7 -4 -10 -10z"/>
<path d="M4895 5580 c-3 -5 3 -10 14 -10 12 0 21 5 21 10 0 6 -6 10 -14 10 -8
0 -18 -4 -21 -10z"/>
<path d="M4357 5529 c-7 -26 -9 -27 -93 -28 -48 0 -89 -3 -92 -6 -3 -3 38 -5
92 -5 101 0 113 5 104 47 -3 14 -6 12 -11 -8z"/>
<path d="M7213 5095 c0 -27 2 -38 4 -22 2 15 2 37 0 50 -2 12 -4 0 -4 -28z"/>
<path d="M731 5095 c1 -40 1 -40 10 -10 5 18 5 33 -1 39 -7 7 -10 -4 -9 -29z"/>
<path d="M4430 5118 c-29 -11 -846 -13 -902 -3 -34 7 -38 5 -44 -20 -13 -51 6
-166 32 -200 21 -28 24 -43 24 -116 0 -46 5 -91 11 -99 7 -11 9 33 7 150 l-3
165 80 -2 c98 -3 585 -3 695 0 77 2 81 3 87 27 3 14 15 42 25 63 11 22 18 40
16 42 -2 1 -14 -2 -28 -7z"/>
<path d="M1276 4983 c-3 -32 -2 -76 3 -98 7 -33 9 -23 10 58 0 53 -1 97 -3 97
-2 0 -7 -26 -10 -57z"/>
<path d="M6669 5008 c-2 -81 1 -161 6 -166 3 -3 5 40 5 96 0 56 -2 102 -5 102
-3 0 -5 -15 -6 -32z"/>
<path d="M4404 4830 c0 -52 1 -74 3 -47 2 26 2 68 0 95 -2 26 -3 4 -3 -48z"/>
<path d="M7213 4825 c0 -27 2 -38 4 -22 2 15 2 37 0 50 -2 12 -4 0 -4 -28z"/>
<path d="M733 4825 c0 -22 2 -30 4 -17 2 12 2 30 0 40 -3 9 -5 -1 -4 -23z"/>
<path d="M1303 4745 c0 -22 2 -30 4 -17 2 12 2 30 0 40 -3 9 -5 -1 -4 -23z"/>
<path d="M6652 4750 c0 -19 2 -27 5 -17 2 9 2 25 0 35 -3 9 -5 1 -5 -18z"/>
<path d="M7190 4691 c0 -25 6 -27 13 -6 4 8 2 17 -3 20 -6 4 -10 -3 -10 -14z"/>
<path d="M756 4685 c4 -8 8 -15 10 -15 2 0 4 7 4 15 0 8 -4 15 -10 15 -5 0 -7
-7 -4 -15z"/>
<path d="M1322 4660 c0 -14 2 -19 5 -12 2 6 2 18 0 25 -3 6 -5 1 -5 -13z"/>
<path d="M6632 4660 c0 -14 2 -19 5 -12 2 6 2 18 0 25 -3 6 -5 1 -5 -13z"/>
<path d="M3560 4610 c0 -25 5 -52 10 -60 7 -11 10 -3 10 30 0 25 -5 52 -10 60
-7 11 -10 3 -10 -30z"/>
<path d="M4801 4568 c1 -66 3 -77 10 -53 11 36 9 135 -3 135 -4 0 -8 -37 -7
-82z"/>
<path d="M3141 4582 c-1 -32 3 -69 8 -82 8 -20 10 -7 10 58 1 92 -15 114 -18
24z"/>
<path d="M4382 4610 c0 -19 2 -27 5 -17 2 9 2 25 0 35 -3 9 -5 1 -5 -18z"/>
<path d="M770 4616 c0 -9 5 -16 10 -16 6 0 10 4 10 9 0 6 -4 13 -10 16 -5 3
-10 -1 -10 -9z"/>
<path d="M7172 4610 c0 -14 2 -19 5 -12 2 6 2 18 0 25 -3 6 -5 1 -5 -13z"/>
<path d="M1341 4594 c0 -11 3 -14 6 -6 3 7 2 16 -1 19 -3 4 -6 -2 -5 -13z"/>
<path d="M795 4551 c-3 -5 -1 -12 5 -16 5 -3 10 1 10 9 0 18 -6 21 -15 7z"/>
<path d="M6591 4544 c0 -11 3 -14 6 -6 3 7 2 16 -1 19 -3 4 -6 -2 -5 -13z"/>
<path d="M1381 4494 c0 -11 3 -14 6 -6 3 7 2 16 -1 19 -3 4 -6 -2 -5 -13z"/>
<path d="M3580 4488 c0 -13 5 -30 10 -38 7 -11 10 -5 10 23 0 20 -4 37 -10 37
-5 0 -10 -10 -10 -22z"/>
<path d="M4362 4485 c0 -16 2 -22 5 -12 2 9 2 23 0 30 -3 6 -5 -1 -5 -18z"/>
<path d="M810 4491 c0 -6 5 -13 10 -16 6 -3 10 1 10 9 0 9 -4 16 -10 16 -5 0
-10 -4 -10 -9z"/>
<path d="M7131 4484 c0 -11 3 -14 6 -6 3 7 2 16 -1 19 -3 4 -6 -2 -5 -13z"/>
<path d="M6546 4455 c-3 -8 -1 -15 4 -15 6 0 10 7 10 15 0 8 -2 15 -4 15 -2 0
-6 -7 -10 -15z"/>
<path d="M3163 4405 c9 -102 40 -260 76 -387 6 -21 15 -53 20 -70 46 -170 146
-377 250 -516 32 -42 63 -87 70 -99 7 -15 21 -23 36 -23 14 0 53 -19 87 -43
90 -61 161 -81 283 -81 120 1 171 17 270 82 43 29 78 45 92 44 17 -3 26 4 34
25 5 15 23 42 38 58 30 32 90 120 134 197 70 121 161 378 196 553 7 33 16 76
21 95 21 83 33 201 21 213 -11 11 -17 -23 -13 -82 1 -13 -4 -33 -10 -45 -11
-19 -19 -53 -34 -141 -3 -16 -9 -39 -14 -50 -5 -11 -10 -31 -12 -45 -2 -18
-10 -26 -28 -28 -22 -2 -32 -19 -79 -135 -30 -72 -63 -146 -74 -164 l-19 -33
-207 0 c-114 0 -211 -4 -216 -8 -6 -5 -32 -14 -60 -20 -39 -9 -61 -9 -97 1
-26 7 -50 16 -54 20 -4 4 -96 7 -205 7 -108 0 -204 3 -213 6 -16 6 -70 113
-111 219 -13 33 -28 73 -34 88 -9 24 -14 26 -31 17 -17 -9 -20 -7 -26 17 -3
16 -9 37 -14 48 -5 11 -11 34 -13 50 -3 17 -13 62 -22 100 -9 39 -18 93 -21
120 -3 28 -10 55 -15 60 -7 7 -9 -9 -6 -50z"/>
<path d="M841 4434 c0 -11 3 -14 6 -6 3 7 2 16 -1 19 -3 4 -6 -2 -5 -13z"/>
<path d="M850 4401 c0 -5 5 -13 10 -16 6 -3 10 -2 10 4 0 5 -4 13 -10 16 -5 3
-10 2 -10 -4z"/>
<path d="M3607 4403 c-3 -5 -1 -17 4 -28 7 -17 8 -17 8 8 1 27 -4 34 -12 20z"/>
<path d="M4341 4394 c0 -11 3 -14 6 -6 3 7 2 16 -1 19 -3 4 -6 -2 -5 -13z"/>
<path d="M7091 4394 c0 -11 3 -14 6 -6 3 7 2 16 -1 19 -3 4 -6 -2 -5 -13z"/>
<path d="M6476 4335 c-9 -26 -7 -32 5 -12 6 10 9 21 6 23 -2 3 -7 -2 -11 -11z"/>
<path d="M3631 4314 c0 -11 3 -14 6 -6 3 7 2 16 -1 19 -3 4 -6 -2 -5 -13z"/>
<path d="M4321 4314 c0 -11 3 -14 6 -6 3 7 2 16 -1 19 -3 4 -6 -2 -5 -13z"/>
<path d="M7051 4314 c0 -11 3 -14 6 -6 3 7 2 16 -1 19 -3 4 -6 -2 -5 -13z"/>
<path d="M900 4312 c0 -5 26 -50 59 -100 236 -369 646 -691 1161 -912 124 -53
134 -57 170 -70 19 -7 44 -16 55 -21 11 -4 65 -22 120 -40 55 -17 109 -35 120
-40 11 -4 31 -10 45 -13 14 -2 43 -10 65 -16 22 -6 60 -16 85 -22 25 -5 63
-14 85 -19 71 -17 212 -45 305 -60 253 -40 371 -49 735 -55 359 -7 522 2 830
47 164 24 453 85 565 119 14 4 45 13 70 20 58 17 219 69 245 80 11 4 36 14 55
21 437 159 868 436 1141 735 54 58 179 222 187 244 3 8 10 18 15 21 5 4 8 12
6 18 -2 6 -24 -19 -48 -55 -25 -37 -50 -72 -56 -78 -6 -6 -19 -22 -28 -36 -35
-51 -224 -235 -297 -289 -41 -31 -76 -58 -77 -61 -2 -3 -79 -4 -173 -2 -155 3
-173 2 -198 -16 -114 -80 -354 -206 -537 -281 -371 -153 -742 -244 -1195 -293
-153 -16 -711 -16 -860 0 -152 17 -292 37 -420 61 -436 81 -881 247 -1220 454
-136 83 -115 78 -295 77 l-164 -2 -73 55 c-40 29 -114 94 -164 143 -90 89
-244 273 -244 293 0 6 -4 11 -8 11 -5 0 -19 20 -32 45 -23 44 -30 53 -30 37z"/>
<path d="M3671 4194 c0 -11 3 -14 6 -6 3 7 2 16 -1 19 -3 4 -6 -2 -5 -13z"/>
<path d="M1605 4160 c3 -5 8 -10 11 -10 2 0 4 5 4 10 0 6 -5 10 -11 10 -5 0
-7 -4 -4 -10z"/>
<path d="M6331 4148 c-14 -23 -14 -23 8 -4 22 20 25 26 13 26 -4 0 -13 -10
-21 -22z"/>
<path d="M1660 4102 c0 -4 10 -13 23 -21 22 -14 22 -14 3 8 -20 22 -26 25 -26
13z"/>
<path d="M6216 4035 c-11 -8 -17 -17 -14 -20 2 -3 13 4 23 15 21 23 18 25 -9
5z"/>
<path d="M1730 4036 c0 -2 8 -10 18 -17 15 -13 16 -12 3 4 -13 16 -21 21 -21
13z"/>
<path d="M3958 3873 c12 -2 30 -2 40 0 9 3 -1 5 -23 4 -22 0 -30 -2 -17 -4z"/>
<path d="M5638 3653 c7 -3 16 -2 19 1 4 3 -2 6 -13 5 -11 0 -14 -3 -6 -6z"/>
<path d="M5598 3633 c7 -3 16 -2 19 1 4 3 -2 6 -13 5 -11 0 -14 -3 -6 -6z"/>
<path d="M2438 3593 c7 -3 16 -2 19 1 4 3 -2 6 -13 5 -11 0 -14 -3 -6 -6z"/>
<path d="M5508 3593 c7 -3 16 -2 19 1 4 3 -2 6 -13 5 -11 0 -14 -3 -6 -6z"/>
<path d="M2488 3573 c7 -3 16 -2 19 1 4 3 -2 6 -13 5 -11 0 -14 -3 -6 -6z"/>
<path d="M5458 3573 c7 -3 16 -2 19 1 4 3 -2 6 -13 5 -11 0 -14 -3 -6 -6z"/>
<path d="M2538 3553 c7 -3 16 -2 19 1 4 3 -2 6 -13 5 -11 0 -14 -3 -6 -6z"/>
<path d="M5408 3553 c7 -3 16 -2 19 1 4 3 -2 6 -13 5 -11 0 -14 -3 -6 -6z"/>
<path d="M2598 3533 c7 -3 16 -2 19 1 4 3 -2 6 -13 5 -11 0 -14 -3 -6 -6z"/>
<path d="M5348 3533 c7 -3 16 -2 19 1 4 3 -2 6 -13 5 -11 0 -14 -3 -6 -6z"/>
<path d="M2648 3513 c7 -3 16 -2 19 1 4 3 -2 6 -13 5 -11 0 -14 -3 -6 -6z"/>
<path d="M5288 3513 c6 -2 18 -2 25 0 6 3 1 5 -13 5 -14 0 -19 -2 -12 -5z"/>
<path d="M2715 3490 c3 -5 11 -10 16 -10 6 0 7 5 4 10 -3 6 -11 10 -16 10 -6
0 -7 -4 -4 -10z"/>
<path d="M5220 3490 c0 -13 11 -13 30 0 12 8 11 10 -7 10 -13 0 -23 -4 -23
-10z"/>
<path d="M2768 3473 c6 -2 18 -2 25 0 6 3 1 5 -13 5 -14 0 -19 -2 -12 -5z"/>
<path d="M5160 3470 c0 -5 4 -10 9 -10 6 0 13 5 16 10 3 6 -1 10 -9 10 -9 0
-16 -4 -16 -10z"/>
<path d="M2845 3450 c3 -5 13 -10 21 -10 8 0 12 5 9 10 -3 6 -13 10 -21 10 -8
0 -12 -4 -9 -10z"/>
<path d="M5090 3450 c0 -5 4 -10 9 -10 6 0 13 5 16 10 3 6 -1 10 -9 10 -9 0
-16 -4 -16 -10z"/>
<path d="M2913 3429 c14 -8 22 -8 30 0 8 8 3 11 -18 11 -26 -1 -28 -2 -12 -11z"/>
<path d="M5015 3430 c3 -5 12 -7 20 -3 21 7 19 13 -6 13 -11 0 -18 -4 -14 -10z"/>
<path d="M2995 3410 c3 -5 15 -10 26 -10 11 0 17 5 14 10 -3 6 -15 10 -26 10
-11 0 -17 -4 -14 -10z"/>
<path d="M4925 3410 c-3 -5 3 -10 14 -10 11 0 23 5 26 10 3 6 -3 10 -14 10
-11 0 -23 -4 -26 -10z"/>
<path d="M3080 3390 c20 -13 50 -13 50 0 0 6 -15 10 -32 10 -25 0 -29 -3 -18
-10z"/>
<path d="M4830 3390 c0 -12 17 -12 45 0 17 7 15 9 -12 9 -18 1 -33 -3 -33 -9z"/>
<path d="M3185 3370 c3 -5 17 -10 31 -10 14 0 22 4 19 10 -3 6 -17 10 -31 10
-14 0 -22 -4 -19 -10z"/>
<path d="M4725 3370 c-3 -6 5 -10 19 -10 14 0 28 5 31 10 3 6 -5 10 -19 10
-14 0 -28 -4 -31 -10z"/>
<path d="M3305 3350 c3 -5 22 -10 41 -10 21 0 33 4 29 10 -3 6 -22 10 -41 10
-21 0 -33 -4 -29 -10z"/>
<path d="M4585 3350 c-4 -6 8 -10 29 -10 19 0 38 5 41 10 4 6 -8 10 -29 10
-19 0 -38 -4 -41 -10z"/>
<path d="M3445 3330 c3 -5 30 -10 58 -9 41 1 47 3 27 9 -37 12 -92 12 -85 0z"/>
<path d="M4430 3330 c-20 -6 -14 -8 27 -9 28 -1 55 4 58 9 7 12 -48 12 -85 0z"/>
<path d="M2020 2366 c-100 -31 -121 -40 -184 -80 -116 -74 -211 -200 -258
-341 -19 -58 -23 -91 -22 -190 0 -147 25 -236 98 -345 132 -199 386 -317 603
-281 160 26 263 78 373 190 123 124 180 262 180 436 0 182 -56 313 -189 445
-98 97 -157 133 -280 166 -113 31 -219 31 -321 0z m298 -237 c177 -86 265
-325 192 -521 -60 -161 -207 -268 -350 -255 -163 14 -298 153 -329 340 -34
199 93 411 274 458 51 14 163 2 213 -22z"/>
<path d="M4522 2369 c-113 -29 -206 -83 -292 -169 -127 -127 -180 -257 -180
-442 0 -122 14 -187 62 -285 88 -177 253 -300 460 -339 302 -58 608 132 709
441 33 100 33 261 0 360 -36 112 -80 184 -161 265 -160 161 -384 225 -598 169z
m295 -242 c71 -37 131 -101 172 -187 35 -72 36 -79 36 -185 0 -102 -2 -114
-31 -175 -44 -91 -102 -153 -182 -192 -56 -28 -78 -33 -137 -33 -212 0 -375
211 -349 452 18 169 125 306 269 344 56 15 168 3 222 -24z"/>
<path d="M487 2333 c-4 -3 -7 -51 -7 -105 l0 -98 173 0 c121 0 177 -4 185 -12
9 -9 12 -130 12 -485 l0 -473 130 0 130 0 2 483 3 482 180 5 180 5 3 80 c2 44
0 90 -3 102 l-5 23 -489 0 c-268 0 -491 -3 -494 -7z"/>
<path d="M2840 2325 c0 -8 25 -54 56 -102 87 -135 164 -256 254 -398 46 -71
96 -150 111 -174 l29 -44 0 -224 0 -223 130 0 130 0 0 218 c0 163 3 223 14
242 7 14 111 177 230 363 119 187 216 343 216 348 0 6 -59 8 -142 7 l-142 -3
-27 -40 c-15 -22 -37 -58 -50 -81 -135 -233 -213 -354 -228 -354 -10 0 -28 21
-44 53 -15 28 -39 72 -54 97 -14 25 -37 65 -51 90 -78 140 -117 207 -130 223
-13 15 -34 17 -159 17 -119 0 -143 -2 -143 -15z"/>
<path d="M5385 2318 c-3 -13 -5 -59 -3 -103 l3 -80 190 -5 190 -5 3 -482 2
-483 130 0 130 0 2 483 3 482 180 5 180 5 0 100 0 100 -502 3 -503 2 -5 -22z"/>
<path d="M6785 2288 c-12 -29 -60 -141 -105 -248 -106 -253 -265 -627 -300
-710 -16 -36 -38 -89 -49 -117 l-21 -53 155 0 c152 0 156 1 165 23 5 12 26 69
48 127 l38 105 246 3 246 2 20 -52 c11 -29 33 -87 49 -128 l29 -75 152 -3
c172 -3 167 -6 131 76 -12 26 -24 56 -29 67 -10 27 -25 63 -43 105 -8 19 -43
105 -77 190 -54 137 -74 185 -125 305 -7 17 -46 111 -85 210 -40 99 -78 190
-86 203 -14 21 -19 22 -175 22 l-160 0 -24 -52z m234 -348 c18 -47 37 -94 41
-105 42 -104 70 -183 70 -197 0 -16 -14 -18 -160 -18 -88 0 -160 4 -160 8 0
12 50 148 94 256 20 50 36 95 36 101 0 18 32 57 40 48 4 -4 22 -46 39 -93z"/>
</g>
</svg>
