<?xml version="1.0" encoding="utf-8"?>
<!-- Generator: Adobe Illustrator 26.0.3, SVG Export Plug-In . SVG Version: 6.00 Build 0)  -->
<svg version="1.0" id="katman_1" xmlns="http://www.w3.org/2000/svg" xmlns:xlink="http://www.w3.org/1999/xlink" x="0px" y="0px"
	 viewBox="0 0 600 450" style="enable-background:new 0 0 600 450;" xml:space="preserve">
<style type="text/css">
	.st0{fill:#E41624;}
	.st1{fill:#FFFFFF;}
</style>
<g id="VIS-logo-tims">
	<g id="Group">
		<rect id="Rectangle" x="53.7" y="179" class="st0" width="93.2" height="92.7"/>
		<path id="Shape" class="st1" d="M100.3,204.3c-17.6,0-31.1,9-31.1,21.1s13.1,21,31.1,21s30.9-9.4,30.9-21
			c0-11.6-13.5-21.1-31-21.1 M119.5,213.3c0.7,2.6-2.4,5.8-12.1,6.9c-0.6-6.6-2.6-12.2-5.9-13.4c4.1,0.1,8.3,0.8,12.2,2.2
			C117.1,210.3,119.2,212,119.5,213.3 M105.1,225.3c0,8.4-2.5,11.9-4.9,11.9s-4.9-3.5-4.9-11.9l0,0c1.6,0.1,3.2,0.2,4.9,0.2
			C101.9,225.5,103.5,225.4,105.1,225.3L105.1,225.3 M100.2,220.6h-4.6c0.8-5.5,2.7-8.8,4.6-8.8c1.9,0,3.8,3.2,4.6,8.8L100.2,220.6
			 M80.9,213.3c0.3-1.4,2.4-2.9,5.9-4.3c3.9-1.4,8.1-2.1,12.2-2.2c-3.3,1.2-5.3,6.8-5.9,13.4C83.3,219.2,80.3,215.9,80.9,213.3
			 M73.8,224.6c0-3.3,1.1-6.6,3.3-9.1c0.3,4.7,6.7,8.2,15.8,9.4v0.4c0,11.3,2.9,17.3,6.2,18.6C85.1,243.4,73.8,234.9,73.8,224.6
			 M101.5,243.9c3.3-1.3,6.2-7.7,6.2-18.6v-0.4c9.1-1.2,15.5-4.7,15.8-9.4c2.2,2.6,3.3,5.8,3.3,9.1
			C126.8,234.9,115.5,243.4,101.5,243.9"/>
	</g>
	<path id="ToyotaInsurance" d="M187.6,222.6v-27.8h8.9v-5.6H172v5.6h9v27.8H187.6z M207.4,223.1c7.8,0,13.2-5.2,13.2-12.4
		c0-7.1-5.4-12.4-13.2-12.4c-7.8,0-13.2,5.2-13.2,12.4C194.2,217.9,199.6,223.1,207.4,223.1L207.4,223.1z M207.4,217.7
		c-3.7,0.2-6.8-2.6-7-6.2c0,0,0,0,0,0c0-0.2,0-0.5,0-0.7c0-3.9,3.1-7,7-7c3.9,0,7,3.1,7,7c0.2,3.7-2.6,6.8-6.2,7c0,0,0,0,0,0
		C207.9,217.7,207.7,217.7,207.4,217.7L207.4,217.7z M226.2,232.6c4.8,0,7.5-2.4,9.3-7l10.6-26.8h-6.2l-5.8,16.2l-6.4-16.2h-6.6
		l9.9,22.9l-0.9,2.2c-0.7,2.1-2.8,3.6-5,3.4c-0.8,0-1.5-0.1-2.2-0.4l-0.7,5C223.5,232.4,224.9,232.6,226.2,232.6L226.2,232.6z
		 M259.7,223.1c7.8,0,13.2-5.2,13.2-12.4c0-7.1-5.4-12.4-13.2-12.4c-7.8,0-13.2,5.2-13.2,12.4C246.5,217.9,251.9,223.1,259.7,223.1z
		 M259.7,217.7c-3.7,0.2-6.8-2.6-7-6.2c0-0.2,0-0.5,0-0.7c0-3.9,3.1-7,7-7s7,3.1,7,7c0.2,3.7-2.6,6.8-6.2,7c0,0,0,0,0,0
		C260.2,217.7,259.9,217.7,259.7,217.7z M286.2,223.1c2.3,0,4.6-0.6,6.6-1.8l-1-4.8c-1.3,0.8-2.7,1.2-4.2,1.3c-1.8,0-2.9-1-2.9-3.3
		v-10.7h6.6v-4.9h-6.6v-7.4l-6,0.8v6.7H275v4.9h3.7v11.5C278.7,220.6,281.5,223.1,286.2,223.1z M302.3,223.2
		c3.2,0.1,6.3-1.3,8.2-3.8v3.3h6v-15c0-6.4-4.1-9.3-10.3-9.3c-3.5,0-7,0.9-10.1,2.7l1.4,4.7c2.2-1.6,4.9-2.4,7.6-2.5
		c3.7,0,5.4,1.8,5.4,4.6v0.5c-11.1,0.1-16.1,2.2-16.1,7.8C294.4,220.5,297.5,223.2,302.3,223.2L302.3,223.2z M304.4,218.8
		c-2.5,0-3.8-1.2-3.8-3.1c0-2.6,2.5-3.7,9.8-3.8v1.6C310.4,217.2,307.3,218.8,304.4,218.8L304.4,218.8z M339.8,222.6v-33.4h-6.5
		v33.4H339.8z M352.8,222.6v-12.7c-0.3-3.2,2-6,5.1-6.3c0.3,0,0.6,0,0.9,0c3.5,0,5,2,5,6.2v12.8h6v-15.1c0-6-3-9.2-8.6-9.2
		c-3.4-0.1-6.6,1.5-8.5,4.4v-3.9h-6v23.8H352.8z M383.9,223.1c6.2,0,9.8-3.2,9.8-7.9c0-4.2-2.9-6-7.9-7.2c-2.5-0.7-4.5-1.3-4.5-3
		c0-1.5,1.5-2.3,3.5-2.3c2.4,0.1,4.8,0.8,6.9,2.1l1.1-4.5c-2.4-1.3-5.2-2-7.9-2c-5.6,0-9.4,2.8-9.4,7.6c0,4.4,3.3,5.7,7.2,7
		c3.3,1,5.2,1.6,5.2,3.3c0,1.6-1.4,2.4-3.7,2.4c-2.9-0.1-5.7-1-8-2.7l-1.4,4.7C377.5,222.3,380.6,223.2,383.9,223.1L383.9,223.1z
		 M406.9,223.2c3.4,0.2,6.7-1.5,8.6-4.3v3.8h6v-23.8h-6v12.7c0.3,3.2-2.1,6-5.2,6.3c0,0,0,0,0,0c-0.3,0-0.6,0-0.9,0
		c-3.4,0-4.9-2-4.9-6.2v-12.8h-6v15.1C398.5,220,401.5,223.2,406.9,223.2L406.9,223.2z M433.9,222.6v-11.2c0-4.8,1.8-7.3,5.6-7.3
		c0.9,0,1.7,0.2,2.5,0.5l1-5.6c-1-0.4-2.1-0.6-3.1-0.6c-2.7,0-5.1,1.8-6,4.3v-3.8h-6v23.8H433.9z M451.5,223.2
		c3.2,0.1,6.3-1.3,8.2-3.8v3.3h6v-15c0-6.4-4.1-9.3-10.3-9.3c-3.5,0-7,0.9-10.1,2.7l1.4,4.7c2.2-1.6,4.9-2.4,7.6-2.5
		c3.7,0,5.4,1.8,5.4,4.6v0.5c-11.1,0.1-16.1,2.2-16.1,7.8C443.6,220.5,446.7,223.2,451.5,223.2L451.5,223.2z M453.6,218.8
		c-2.5,0-3.8-1.2-3.8-3.1c0-2.6,2.5-3.7,9.8-3.8v1.6C459.6,217.2,456.6,218.8,453.6,218.8L453.6,218.8z M477.8,222.6v-12.7
		c-0.3-3.2,2-6,5.1-6.3c0.3,0,0.6,0,0.9,0c3.5,0,5,2,5,6.2v12.8h6v-15.1c0-6-3-9.2-8.6-9.2c-3.4-0.1-6.6,1.5-8.5,4.4v-3.9h-6v23.8
		H477.8z M512.1,223.1c3.1,0,6.1-0.8,8.7-2.5l-1.5-4.9c-2,1.3-4.3,2-6.6,2.1c-3.6,0.2-6.7-2.6-6.9-6.3c0-0.3,0-0.5,0-0.8
		c-0.2-3.7,2.6-6.8,6.3-7c0,0,0,0,0,0c0.2,0,0.4,0,0.7,0c2.2,0,4.3,0.7,6,2l1.8-5c-2.5-1.5-5.3-2.3-8.2-2.3
		c-6.7-0.4-12.4,4.8-12.8,11.5c0,0,0,0,0,0c0,0.3,0,0.6,0,1c-0.2,6.6,4.9,12.1,11.5,12.3c0,0,0,0,0,0
		C511.4,223.1,511.7,223.1,512.1,223.1L512.1,223.1z M535.5,223.1c3.5,0.1,7-0.9,10-2.8l-1.5-4.6c-2.3,1.6-5,2.5-7.8,2.5
		c-4.2,0-7-2.2-7.4-6.2h17.8v-0.9c0-7.7-4.7-12.7-11.7-12.7c-6.6-0.2-12.1,5-12.3,11.6c0,0.3,0,0.6,0,0.8
		C522.6,217.9,527.7,223.1,535.5,223.1L535.5,223.1z M540.4,208h-11.5c0.5-2.9,3-5.1,6-5.1C537.7,202.9,540.1,205.1,540.4,208
		L540.4,208z"/>
	<path id="ManagementSolutions" d="M178.5,262.5V244l6.1,11h3.6l6.3-11v18.5h4.6V238h-5.8l-6.8,11.6l-6.5-11.6h-6v24.5H178.5z
		 M208.8,262.9c2.3,0.1,4.5-1,5.9-2.8v2.4h4.3v-11c0-4.7-2.9-6.8-7.4-6.8c-2.5,0-5,0.7-7.2,2l1,3.4c1.6-1.1,3.5-1.8,5.4-1.8
		c2.6,0,3.8,1.3,3.8,3.4v0.3c-7.9,0.1-11.5,1.6-11.5,5.7c-0.1,2.8,2.1,5.1,4.9,5.2C208.3,262.9,208.5,262.9,208.8,262.9z
		 M210.3,259.7c-1.8,0-2.7-0.9-2.7-2.2c0-1.9,1.8-2.7,7-2.8v1.2c0,2.2-1.8,3.9-3.9,3.9c0,0,0,0,0,0
		C210.6,259.7,210.4,259.7,210.3,259.7z M227.6,262.5v-9.3c-0.3-2.3,1.4-4.3,3.7-4.6c0.2,0,0.4,0,0.7,0c2.5,0,3.6,1.4,3.6,4.5v9.4
		h4.3v-11.1c0-4.4-2.1-6.8-6.1-6.8c-2.5-0.1-4.8,1.1-6.1,3.2V245h-4.3v17.4L227.6,262.5z M248.9,262.9c2.3,0.1,4.5-1,5.9-2.8v2.4
		h4.3v-11c0-4.7-2.9-6.8-7.4-6.8c-2.5,0-5,0.7-7.2,2l1,3.4c1.6-1.1,3.5-1.8,5.4-1.8c2.6,0,3.8,1.3,3.8,3.4v0.3
		c-7.9,0.1-11.5,1.6-11.5,5.7c-0.1,2.8,2.1,5.1,4.9,5.2C248.4,262.9,248.7,262.9,248.9,262.9L248.9,262.9z M250.5,259.7
		c-1.8,0-2.7-0.9-2.7-2.2c0-1.9,1.8-2.7,7-2.8v1.2c0,2.2-1.8,3.9-3.9,3.9C250.7,259.7,250.6,259.7,250.5,259.7L250.5,259.7z
		 M271.3,270.1c5.4,0,9.5-2.7,9.5-8.3V245h-4.3v2.6c-1.3-1.9-3.5-3-5.9-3c-4.6,0-8.3,3.8-8.3,8.4c0,0,0,0,0,0c0,0.2,0,0.3,0,0.5
		c-0.3,4.5,3.1,8.4,7.6,8.7c0,0,0,0,0,0c0.2,0,0.4,0,0.7,0c2.4,0.1,4.6-1,5.9-3v2.3c0,3-2.1,4.5-5.4,4.5c-2.3,0-4.6-0.7-6.4-2.2
		l-1.1,4C265.9,269.5,268.6,270.2,271.3,270.1z M271.7,258.6c-2.8-0.1-5-2.5-4.9-5.3c0.1-2.7,2.2-4.8,4.9-4.9c2.7,0,4.9,2.2,4.9,4.9
		c0,0,0,0,0,0v0.1c0.1,2.7-1.9,5-4.6,5.1C271.9,258.6,271.8,258.6,271.7,258.6L271.7,258.6z M293.3,262.8c2.5,0.1,5-0.6,7.1-2.1
		l-1.1-3.4c-1.6,1.2-3.6,1.8-5.6,1.8c-2.6,0.3-5-1.6-5.3-4.2c0,0,0,0,0,0c0-0.1,0-0.2,0-0.3h12.7V254c0-5.6-3.3-9.3-8.3-9.3
		c-4.8-0.1-8.7,3.7-8.8,8.5c0,0,0,0,0,0c0,0.2,0,0.4,0,0.6c-0.2,4.8,3.6,8.9,8.4,9C292.8,262.8,293,262.8,293.3,262.8L293.3,262.8z
		 M296.8,251.8h-8.2c0.3-2.1,2.1-3.7,4.3-3.7C295,248.1,296.7,249.7,296.8,251.8L296.8,251.8z M308.7,262.5v-9.3
		c0-2.9,1.4-4.7,3.8-4.7c2.2,0,3.2,1.4,3.2,4.5v9.4h4.3V253c0-2.7,1.5-4.5,3.8-4.5c2.3,0,3.2,1.4,3.2,4.5v9.4h4.3v-11.1
		c0-4.4-2-6.7-5.9-6.7c-2.5-0.1-4.9,1.4-5.9,3.7c-0.7-2.4-3-4-5.5-3.7c-2.2-0.1-4.4,1.1-5.5,3.1V245h-4.3v17.4L308.7,262.5z
		 M343.9,262.8c2.5,0.1,5-0.6,7.1-2.1l-1.1-3.4c-1.6,1.2-3.6,1.8-5.6,1.8c-2.6,0.3-5-1.6-5.3-4.2c0,0,0,0,0,0c0-0.1,0-0.2,0-0.3
		h12.7V254c0-5.6-3.3-9.3-8.3-9.3c-4.8-0.1-8.7,3.7-8.8,8.5c0,0,0,0,0,0c0,0.2,0,0.4,0,0.6c-0.2,4.8,3.6,8.9,8.4,9
		C343.3,262.8,343.6,262.8,343.9,262.8L343.9,262.8z M347.4,251.8h-8.3c0.3-2.1,2.1-3.7,4.3-3.7
		C345.5,248.1,347.2,249.7,347.4,251.8L347.4,251.8z M359.3,262.5v-9.3c-0.3-2.3,1.4-4.3,3.7-4.6c0,0,0,0,0,0c0.2,0,0.4,0,0.7,0
		c2.5,0,3.6,1.4,3.6,4.5v9.4h4.3v-11.1c0-4.4-2.1-6.8-6.1-6.8c-2.5-0.1-4.8,1.1-6,3.2V245H355v17.4L359.3,262.5z M382,262.8
		c1.7,0,3.3-0.4,4.7-1.3L386,258c-0.9,0.6-1.9,0.9-3,0.9c-1.3,0-2.1-0.8-2.1-2.4v-7.9h4.7V245h-4.7v-5.4l-4.3,0.6v4.9H374v3.6h2.7
		v8.4C376.6,261,378.6,262.8,382,262.8L382,262.8z M403.4,262.8c5.3,0,8.7-2.8,8.7-7.6c0-4.4-2.9-5.6-6.7-7
		c-2.9-1.1-4.8-1.8-4.8-3.8c0-1.7,1.5-2.7,3.7-2.7c2,0.1,4,0.6,5.8,1.6l1.3-4c-2.2-1.1-4.6-1.7-7.1-1.7c-5,0-8.4,2.7-8.4,7.2
		c0,4.1,2.9,5.7,6.8,7.2c3.3,1.2,4.8,1.8,4.8,3.7c0,1.9-1.3,2.9-3.7,2.9c-2.6-0.1-5.1-1-7.1-2.6l-1.2,4.3
		C397.7,262,400.5,262.9,403.4,262.8L403.4,262.8z M424,262.8c5-0.2,8.9-4.4,8.7-9.4c-0.2-5-4.4-8.9-9.4-8.7
		c-4.9,0.2-8.7,4.2-8.7,9.1c-0.1,4.9,3.8,9,8.7,9.1C423.5,262.8,423.7,262.8,424,262.8L424,262.8z M424,258.9
		c-2.8,0.1-5.2-2.2-5.2-5s2.2-5.2,5-5.2c2.8-0.1,5.2,2.2,5.2,5c0,0,0,0,0,0v0.1c0.2,2.6-1.8,4.9-4.5,5.1
		C424.3,258.9,424.1,258.9,424,258.9L424,258.9z M441.5,262.8c1.1,0,2.3-0.2,3.3-0.7l-0.5-3.4c-0.5,0.2-1.1,0.3-1.6,0.3
		c-1,0-1.6-0.6-1.6-2v-20.4h-4.3v21.1C436.8,261.2,438.5,262.8,441.5,262.8L441.5,262.8z M452.9,262.9c2.5,0.1,4.8-1.1,6.1-3.2v2.8
		h4.3V245H459v9.3c0.2,2.3-1.4,4.4-3.8,4.6c-0.2,0-0.4,0-0.6,0c-2.4,0-3.5-1.4-3.5-4.6V245h-4.3v11.1
		C446.9,260.5,449,262.9,452.9,262.9L452.9,262.9z M474.2,262.8c1.7,0,3.3-0.4,4.7-1.3l-0.7-3.5c-0.9,0.6-1.9,0.9-3,0.9
		c-1.3,0-2.1-0.8-2.1-2.4v-7.9h4.7V245h-4.7v-5.4l-4.3,0.6v4.9h-2.7v3.6h2.7v8.4C468.8,261,470.8,262.8,474.2,262.8L474.2,262.8z
		 M483.3,242.1c1.4,0,2.6-1.2,2.6-2.6c0,0,0,0,0,0v-0.1c0-1.5-1.2-2.6-2.7-2.6c-1.5,0-2.6,1.2-2.6,2.7
		C480.7,240.9,481.8,242.1,483.3,242.1L483.3,242.1z M485.4,262.5V245h-4.3v17.4L485.4,262.5z M498.2,262.8c5-0.2,8.9-4.4,8.7-9.4
		c-0.2-5-4.4-8.9-9.4-8.7c-4.9,0.2-8.7,4.2-8.7,9.1c-0.1,4.9,3.8,9,8.7,9.1C497.7,262.8,498,262.8,498.2,262.8L498.2,262.8z
		 M498.2,258.9c-2.8,0.1-5.2-2.2-5.2-5s2.2-5.2,5-5.2c2.8-0.1,5.2,2.2,5.2,5c0,0,0,0,0,0v0.1c0.2,2.6-1.8,4.9-4.5,5.1
		C498.6,258.9,498.4,258.9,498.2,258.9L498.2,258.9z M515.3,262.5v-9.3c-0.3-2.3,1.4-4.3,3.7-4.6c0,0,0,0,0,0c0.2,0,0.4,0,0.7,0
		c2.5,0,3.6,1.4,3.6,4.5v9.4h4.3v-11.1c0-4.4-2.1-6.8-6.1-6.8c-2.5-0.1-4.8,1.1-6,3.2V245h-4.3v17.4L515.3,262.5z M537.5,262.8
		c4.5,0,7-2.3,7-5.8c0-3.1-2.1-4.4-5.6-5.3c-1.8-0.5-3.2-0.9-3.2-2.2c0-1.1,1.1-1.7,2.5-1.7c1.8,0.1,3.5,0.6,4.9,1.6l0.8-3.3
		c-1.7-1-3.7-1.5-5.7-1.5c-4,0-6.7,2.1-6.7,5.6c0,3.2,2.4,4.2,5.1,5.1c2.4,0.8,3.7,1.2,3.7,2.4c0,1.2-1,1.8-2.6,1.8
		c-2.1,0-4.1-0.7-5.7-2l-1,3.4C533,262.2,535.2,262.9,537.5,262.8L537.5,262.8z"/>
</g>
</svg>
